<?xml version="1.0" encoding="UTF-8"?>
<svg width="18" height="18" viewBox="0 0 18 18" xmlns="http://www.w3.org/2000/svg">
    <path d="M14.537 9.544c-.02-2.014 1.643-2.983 1.717-3.03-.935-1.368-2.39-1.555-2.908-1.576-1.237-.126-2.416.73-3.043.73-.627 0-1.596-.712-2.623-.693-1.35.02-2.595.785-3.289 1.994-1.403 2.433-.359 6.036 1.008 8.009.668.965 1.464 2.048 2.508 2.009 1.007-.04 1.388-.651 2.605-.651 1.217 0 1.56.651 2.625.63 1.084-.02 1.771-.985 2.434-1.954.767-1.121 1.082-2.207 1.101-2.263-.024-.01-2.112-.811-2.133-3.215l-.002.01zM12.45 4.876c.554-.673.928-1.608.827-2.54-.798.033-1.764.532-2.337 1.205-.513.595-.962 1.544-.841 2.456.89.069 1.798-.451 2.351-1.121z" fill="#000" fill-rule="nonzero"/>
</svg> 